<?xml version="1.0" standalone="no"?>
<!DOCTYPE svg PUBLIC "-//W3C//DTD SVG 20010904//EN"
 "http://www.w3.org/TR/2001/REC-SVG-20010904/DTD/svg10.dtd">
<svg version="1.0" xmlns="http://www.w3.org/2000/svg"
 width="200.000000pt" height="200.000000pt" viewBox="0 0 200.000000 200.000000"
 preserveAspectRatio="xMidYMid meet">
<metadata>
Created by potrace 1.14, written by Peter Selinger 2001-2017
</metadata>
<g transform="translate(0.000000,200.000000) scale(0.100000,-0.100000)"
fill="#000000" stroke="none">
<path d="M0 1000 l0 -1000 1000 0 1000 0 0 1000 0 1000 -1000 0 -1000 0 0
-1000z m1318 674 c64 -45 89 -191 57 -345 -33 -166 -120 -363 -241 -546 -35
-53 -64 -108 -64 -121 0 -13 14 -37 30 -54 27 -27 36 -30 71 -25 22 3 59 18
81 33 51 36 72 26 76 -38 4 -55 -19 -87 -85 -119 -99 -48 -225 -21 -279 61
l-26 40 -45 -40 c-68 -60 -126 -84 -203 -84 -186 -2 -274 118 -275 375 l0 117
-42 5 c-57 6 -73 21 -73 68 0 51 20 69 80 69 54 0 51 -4 70 93 38 189 140 375
231 423 33 16 102 18 130 4 10 -6 27 -27 38 -48 57 -114 17 -293 -94 -419
l-46 -52 88 -3 88 -3 3 -35 c6 -69 -65 -100 -230 -100 l-80 0 4 -122 c4 -138
20 -188 69 -213 60 -32 130 -12 203 55 l45 42 -6 76 c-10 142 32 425 89 596
74 222 159 326 268 326 25 0 56 -7 68 -16z m276 -1005 c56 -26 72 -130 28
-188 -46 -63 -163 -62 -202 2 -36 59 -16 152 39 182 32 17 101 19 135 4z"/>
<path d="M1190 1528 c-58 -95 -138 -473 -128 -608 l3 -45 48 92 c96 186 147
355 147 488 0 105 -31 136 -70 73z"/>
<path d="M688 1448 c-7 -13 -19 -35 -26 -50 -28 -67 -76 -298 -61 -298 18 0
100 117 120 170 24 63 34 137 25 174 -8 33 -38 34 -58 4z"/>
</g>
</svg>
