<?xml version="1.0" standalone="no"?>
<!DOCTYPE svg PUBLIC "-//W3C//DTD SVG 20010904//EN"
 "http://www.w3.org/TR/2001/REC-SVG-20010904/DTD/svg10.dtd">
<svg version="1.0" xmlns="http://www.w3.org/2000/svg"
 width="225.000000pt" height="225.000000pt" viewBox="0 0 225.000000 225.000000"
 preserveAspectRatio="xMidYMid meet">
<metadata>
Created by potrace 1.14, written by Peter Selinger 2001-2017
</metadata>
<g transform="translate(0.000000,225.000000) scale(0.100000,-0.100000)"
fill="#000000" stroke="none">
<path d="M0 1125 l0 -1125 1125 0 1125 0 0 1125 0 1125 -1125 0 -1125 0 0
-1125z m1648 275 l2 -265 -98 -103 -98 -102 -99 0 -100 0 -82 -82 -83 -83 0
83 0 82 -110 0 -110 0 0 370 0 370 388 -2 387 -3 3 -265z"/>
<path d="M1140 1350 l0 -150 45 0 45 0 0 150 0 150 -45 0 -45 0 0 -150z"/>
<path d="M1404 1487 c-2 -7 -3 -74 -2 -148 l3 -134 48 -3 47 -3 0 150 0 151
-45 0 c-28 0 -48 -5 -51 -13z"/>
</g>
</svg>
