<?xml version="1.0" standalone="no"?>
<!DOCTYPE svg PUBLIC "-//W3C//DTD SVG 20010904//EN"
 "http://www.w3.org/TR/2001/REC-SVG-20010904/DTD/svg10.dtd">
<svg version="1.0" xmlns="http://www.w3.org/2000/svg"
 width="294.000000pt" height="294.000000pt" viewBox="0 0 294.000000 294.000000"
 preserveAspectRatio="xMidYMid meet">
<metadata>
Created by potrace 1.14, written by Peter Selinger 2001-2017
</metadata>
<g transform="translate(0.000000,294.000000) scale(0.100000,-0.100000)"
fill="#000000" stroke="none">
<path d="M190 2889 c-46 -18 -99 -61 -122 -98 l-23 -36 0 -1275 c0 -1168 1
-1278 17 -1305 26 -48 60 -81 106 -104 l43 -22 1252 -1 c1155 -1 1255 1 1292
16 50 21 91 60 118 111 l21 40 1 1243 c0 994 -2 1252 -13 1288 -15 52 -74 116
-128 139 -32 13 -189 15 -1288 14 -798 0 -1260 -4 -1276 -10z"/>
</g>
</svg>
